<?xml version="1.0" standalone="no"?><!DOCTYPE svg PUBLIC "-//W3C//DTD SVG 1.1//EN" "http://www.w3.org/Graphics/SVG/1.1/DTD/svg11.dtd"><svg t="1510678813092" class="icon" style="" viewBox="0 0 1024 1024" version="1.1" xmlns="http://www.w3.org/2000/svg" p-id="1991" xmlns:xlink="http://www.w3.org/1999/xlink" width="16" height="16"><defs><style type="text/css"></style></defs><path d="M860.623 163.952C765.506 68.835 639.04 16.451 504.522 16.451S243.538 68.835 148.421 163.952C53.3 259.071 0.918 385.537 0.918 520.055c0 134.517 52.384 260.983 147.503 356.101 95.117 95.119 221.584 147.503 356.101 147.503s260.983-52.384 356.101-147.503 147.503-221.585 147.503-356.101c0-134.518-52.384-260.984-147.503-356.103z m-356.101 829.81c-261.203 0-473.708-212.504-473.708-473.707 0-261.204 212.505-473.708 473.708-473.708 261.202 0 473.707 212.504 473.707 473.708 0 261.203-212.504 473.708-473.707 473.708z m23.157-701.9c-12.79-12.789-33.525-12.789-46.315 0l-162.898 162.9c-12.79 12.789-12.79 33.524 0 46.313 12.789 12.79 33.524 12.79 46.314 0l71.593-71.594c2.923-1.846 8.718-4.694 15.606-3.78 13.11 1.742 15.763 15.009 15.763 15.009v202.963a5.012 5.012 0 0 0 5.012 5.012h63.536a5.012 5.012 0 0 0 5.012-5.012V440.712s2.653-13.268 15.763-15.009c6.887-0.914 12.682 1.933 15.605 3.78l71.593 71.593c12.79 12.79 33.525 12.79 46.314 0 12.79-12.79 12.79-33.525 0-46.315L527.68 291.863z m8.611 419.564h-63.536a5.012 5.012 0 0 0-5.012 5.012v73.763a5.011 5.011 0 0 0 5.012 5.012h63.536a5.012 5.012 0 0 0 5.012-5.012v-73.763a5.012 5.012 0 0 0-5.012-5.012z" p-id="1992"></path></svg>