<?xml version="1.0" standalone="no"?><!DOCTYPE svg PUBLIC "-//W3C//DTD SVG 1.1//EN" "http://www.w3.org/Graphics/SVG/1.1/DTD/svg11.dtd"><svg t="1510726849427" class="icon" style="" viewBox="0 0 1024 1024" version="1.1" xmlns="http://www.w3.org/2000/svg" p-id="4557" xmlns:xlink="http://www.w3.org/1999/xlink" width="200" height="200"><defs><style type="text/css"></style></defs><path d="M512 1024C229.286957 1024 0 794.713043 0 512S229.286957 0 512 0s512 229.286957 512 512-229.286957 512-512 512z m0-979.478261C253.773913 44.521739 44.521739 253.773913 44.521739 512s209.252174 467.478261 467.478261 467.478261 467.478261-209.252174 467.478261-467.478261S770.226087 44.521739 512 44.521739z" fill="#9EA0A0" p-id="4558"></path><path d="M506.434783 489.73913c-89.043478 0-161.391304-72.347826-161.391305-161.391304S417.391304 166.956522 506.434783 166.956522 667.826087 239.304348 667.826087 328.347826 595.478261 489.73913 506.434783 489.73913z m0-278.260869C441.878261 211.478261 389.565217 263.791304 389.565217 328.347826S441.878261 445.217391 506.434783 445.217391 623.304348 392.904348 623.304348 328.347826 570.991304 211.478261 506.434783 211.478261z" fill="#9EA0A0" p-id="4559"></path><path d="M745.73913 756.869565c-12.243478 0-22.26087-10.017391-22.260869-22.260869 0-124.66087-101.286957-233.73913-217.043478-233.739131S289.391304 609.947826 289.391304 734.608696c0 12.243478-10.017391 22.26087-22.260869 22.260869s-22.26087-10.017391-22.26087-22.260869c0-148.034783 122.434783-278.26087 261.565218-278.26087S768 586.573913 768 734.608696c0 12.243478-10.017391 22.26087-22.26087 22.260869z" fill="#9EA0A0" p-id="4560"></path></svg>