<?xml version="1.0" standalone="no"?><!DOCTYPE svg PUBLIC "-//W3C//DTD SVG 1.1//EN" "http://www.w3.org/Graphics/SVG/1.1/DTD/svg11.dtd"><svg t="1510719185564" class="icon" style="" viewBox="0 0 1024 1024" version="1.1" xmlns="http://www.w3.org/2000/svg" p-id="1237" xmlns:xlink="http://www.w3.org/1999/xlink" width="200" height="200"><defs><style type="text/css"></style></defs><path d="M870.850459 395.240763 580.098469 92.615351c-18.065448-18.787902-42.217521-29.128411-68.100004-29.128411-25.883507 0-50.034557 10.339486-68.098981 29.128411L153.149541 395.240763c-30.002314 31.237445-26.139334 58.236356-21.179368 69.51319 3.535523 8.002254 15.470343 29.997198 49.847292 29.997198l42.61661 0 0 232.804207c0 52.855812 37.957497 102.622262 91.90006 102.622262l48.910966 0 74.863035 0 0-54.702879L440.108135 583.800279c0-26.412556-4.001127-41.131793 22.982434-41.131793l48.90892 0 48.910966 0c26.983561 0 22.980387 14.72026 22.980387 41.131793l0 191.676507 0 54.702879 74.864058 0 48.90892 0c53.943586 0 91.904153-49.76645 91.904153-102.622262L799.567973 494.752174l42.61354 0c34.378995 0 46.314839-21.994943 49.848315-29.997198C896.98877 453.477119 900.851751 426.478208 870.850459 395.240763z" p-id="1238"></path></svg>