<?xml version="1.0" standalone="no"?><!DOCTYPE svg PUBLIC "-//W3C//DTD SVG 1.1//EN" "http://www.w3.org/Graphics/SVG/1.1/DTD/svg11.dtd"><svg t="1510719860391" class="icon" style="" viewBox="0 0 1024 1024" version="1.1" xmlns="http://www.w3.org/2000/svg" p-id="7313" xmlns:xlink="http://www.w3.org/1999/xlink" width="200" height="200"><defs><style type="text/css"></style></defs><path d="M353.69916 717.403777l262.236714-443.59475 55.454724 32.78277-262.236714 443.59475-55.454724-32.78277Z" fill="#666666" p-id="7314"></path><path d="M549.1 575.33l-35 56.5a93.44 93.44 0 0 1 7.9 108.75l-68 110.47c-26.79 43.49-84.12 57.34-127.8 30.88l-0.61-0.37-59.7-36.78a93.44 93.44 0 0 1-30.51-128.41l68.01-110.47c21.59-35 63-50.79 101.11-41.77l35-56.48a157.76 157.76 0 0 0-190.93 64.46l-68.08 110.47a157.74 157.74 0 0 0 51.57 217l59.7 36.78 1 0.62a157.74 157.74 0 0 0 216-52.18l68.06-110.47a157.76 157.76 0 0 0-27.72-199zM792.18 124.1l-59.7-36.78-1-0.62a157.75 157.75 0 0 0-216 52.18l-68.1 110.48A157.76 157.76 0 0 0 475.8 449l34.9-56.36a93.46 93.46 0 0 1-8.48-109.49l68.06-110.47c26.79-43.49 84.12-57.34 127.8-30.88l0.61 0.37 59.7 36.78a93.43 93.43 0 0 1 30.51 128.4l-68.05 110.47c-21.41 34.76-62.33 50.51-100.19 42l-35.07 56.58a157.76 157.76 0 0 0 190.1-64.79l68.06-110.47a157.74 157.74 0 0 0-51.57-217.04z" fill="#666666" p-id="7315"></path></svg>