<?xml version="1.0" standalone="no"?><!DOCTYPE svg PUBLIC "-//W3C//DTD SVG 1.1//EN" "http://www.w3.org/Graphics/SVG/1.1/DTD/svg11.dtd"><svg t="1510719498507" class="icon" style="" viewBox="0 0 1024 1024" version="1.1" xmlns="http://www.w3.org/2000/svg" p-id="1917" xmlns:xlink="http://www.w3.org/1999/xlink" width="200" height="200"><defs><style type="text/css"></style></defs><path d="M831.462 959.334h-639.57c-35.325 0-63.959-26.729-63.959-59.709V451.927c0-32.95 28.635-59.68 63.96-59.68h639.57c35.316 0 63.955 26.73 63.955 59.68v447.698c0 32.98-28.64 59.713-63.956 59.71zM511.676 541.493c-52.999 0-95.938 40.066-95.938 89.53 0 33.044 19.43 61.62 47.97 77.108v85.193c0 25.727 21.482 46.625 47.971 46.625 26.476 0 47.967-20.899 47.967-46.625v-85.193c28.542-15.489 47.966-44.064 47.966-77.108 0-49.459-42.94-89.525-95.933-89.525l-0.003-0.005z m0-388.023c-105.963 0-191.872 80.17-191.872 179.069H223.87c0-148.338 128.849-268.6 287.805-268.6 158.95 0 287.804 120.262 287.804 268.6h-95.934c0.001-98.899-85.913-179.069-191.869-179.069z m0 0" fill="" p-id="1918"></path><path d="M831.462 961.38h-639.57c-35.325 0-63.959-26.728-63.959-59.708V453.973c0-32.949 28.635-59.679 63.96-59.679h639.57c35.316 0 63.955 26.73 63.955 59.68v447.698c0 32.979-28.64 59.713-63.956 59.709zM511.676 543.54c-52.999 0-95.938 40.066-95.938 89.53 0 33.044 19.43 61.619 47.97 77.108v85.193c0 25.727 21.482 46.625 47.971 46.625 26.476 0 47.967-20.9 47.967-46.625v-85.193c28.542-15.49 47.966-44.064 47.966-77.109 0-49.458-42.94-89.525-95.933-89.525l-0.003-0.005z m0-388.023c-105.963 0-191.872 80.17-191.872 179.068H223.87c0-148.337 128.849-268.6 287.805-268.6 158.95 0 287.804 120.263 287.804 268.6h-95.934c0.001-98.898-85.913-179.068-191.869-179.068z m0 0" fill="" p-id="1919"></path><path d="M831.462 960.358h-639.57c-35.325 0-63.959-26.73-63.959-59.71V452.95c0-32.95 28.635-59.68 63.96-59.68h639.57c35.316 0 63.955 26.73 63.955 59.68V900.65c0 32.979-28.64 59.713-63.956 59.709zM511.676 542.516c-52.999 0-95.938 40.067-95.938 89.53 0 33.045 19.43 61.62 47.97 77.108v85.194c0 25.727 21.482 46.624 47.971 46.624 26.476 0 47.967-20.899 47.967-46.624v-85.194c28.542-15.488 47.966-44.063 47.966-77.108 0-49.458-42.94-89.525-95.933-89.525l-0.003-0.005z m0-388.022c-105.963 0-191.872 80.17-191.872 179.068H223.87c0-148.337 128.849-268.6 287.805-268.6 158.95 0 287.804 120.263 287.804 268.6h-95.934c0.001-98.898-85.913-179.068-191.869-179.068z m0 0" fill="" p-id="1920"></path><path d="M831.462 958.31h-639.57c-35.325 0-63.959-26.728-63.959-59.708V450.904c0-32.95 28.635-59.68 63.96-59.68h639.57c35.316 0 63.955 26.73 63.955 59.68v447.698c0 32.98-28.64 59.713-63.956 59.709zM511.676 540.47c-52.999 0-95.938 40.066-95.938 89.53 0 33.044 19.43 61.619 47.97 77.108V792.3c0 25.727 21.482 46.625 47.971 46.625 26.476 0 47.967-20.9 47.967-46.625v-85.193c28.542-15.49 47.966-44.064 47.966-77.109 0-49.458-42.94-89.524-95.933-89.524l-0.003-0.006z m0-388.023c-105.963 0-191.872 80.17-191.872 179.068H223.87c0-148.337 128.849-268.6 287.805-268.6 158.95 0 287.804 120.263 287.804 268.6h-95.934c0.001-98.898-85.913-179.068-191.869-179.068z m0 0" fill="" p-id="1921"></path></svg>