<svg xmlns="http://www.w3.org/2000/svg" xmlns:xlink="http://www.w3.org/1999/xlink" version="1.1" id="Layer_1" x="0px" y="0px" width="102.852px" height="148px" viewBox="-23.906 -60.684 102.852 148" enable-background="new -23.906 -60.684 102.852 148" xml:space="preserve"><g id="articles" display="none"><path display="inline" fill="#DB5640" d="M27.497 0c15.186 0 27.5 12.3 27.5 27.497S42.683 55 27.5 55C12.311 55 0 42.7 0 27.5 C0 12.3 12.3 0 27.5 0H27.497z"/><g display="inline"><path fill="#F9F9F3" d="M33.27 13.288l-16.508 3.778c-0.978 0.228-1.589 1.222-1.365 2.214l5.001 21.8c0.225 1 1.2 1.6 2.2 1.4 l16.508-3.778c0.977-0.228 1.59-1.221 1.364-2.214L35.45 14.7c-0.224-1-1.25-1.6-2.15-1.412H33.27z M33.273 15.746l4.691 20.4 L22.51 39.7l-4.691-20.423L33.273 15.746z"/><path fill="#F9F9F3" d="M20.199 21.871c0.128 0.564-0.219 1.127-0.774 1.256l-3.665 0.857c-0.556 0.13-1.11-0.222-1.238-0.786l0 0 c-0.128-0.564 0.219-1.127 0.774-1.257l3.665-0.857C19.516 21 20.1 21.3 20.2 21.871H20.199z"/><path fill="#F9F9F3" d="M21.283 26.65c0.128 0.565-0.219 1.127-0.774 1.257l-3.665 0.857c-0.556 0.13-1.11-0.222-1.238-0.786l0 0 c-0.128-0.564 0.219-1.127 0.774-1.257l3.665-0.857C20.601 25.7 21.2 26.1 21.3 26.65H21.283z"/><path fill="#F9F9F3" d="M22.367 31.429c0.128 0.564-0.219 1.127-0.774 1.257l-3.665 0.857c-0.556 0.13-1.109-0.222-1.238-0.786 l0 0c-0.128-0.564 0.219-1.127 0.775-1.256l3.665-0.857c0.555-0.144 1.1 0.3 1.3 0.8 C22.4 31.4 22.4 31.4 22.4 31.429z"/><path fill="#F9F9F3" d="M23.451 36.208c0.128 0.564-0.219 1.127-0.774 1.257l-3.665 0.857c-0.556 0.13-1.11-0.222-1.238-0.786l0 0 c-0.128-0.564 0.219-1.127 0.774-1.257l3.665-0.857C22.769 35.3 23.3 35.6 23.5 36.208H23.451z"/><path fill="#F9F9F3" d="M20.111 13.779l9.359 18.549l2.468-1.284l-9.359-18.549L20.111 13.779z"/><path fill="#F9F9F3" d="M29.372 32.109l2.468-1.283l0.538 4.153L29.372 32.109z"/></g></g><g id="photos" display="none"><path display="inline" fill="#5E7BA7" d="M27.497 0c15.186 0 27.5 12.3 27.5 27.497S42.683 55 27.5 55C12.311 55 0 42.7 0 27.5 C0 12.3 12.3 0 27.5 0H27.497z"/><g display="inline"><path fill="#F9F9F3" d="M16.611 40.145c-1.636 0-2.616-0.991-2.616-2.582V16.984l-2.634 0.3c-0.847 0.092-1.459 0.837-1.365 1.7 l2.492 20.75c0.094 0.8 0.9 1.4 1.7 1.327l7.793-0.845L16.611 40.145V40.1V40.145z"/><path fill="#F9F9F3" d="M33.477 13.993H17.44c-0.829 0-1.449 0.939-1.449 1.76v20.738c0 0.8 0.7 1.5 1.5 1.489h15.983 c0.829 0 1.504-0.668 1.504-1.489V15.482C34.981 14.7 34.3 14 33.5 13.993H33.477z M32.988 15.99l-0.001 14.991H18.004V15.99 H32.988z"/><path fill="#F9F9F3" d="M43.666 17.727l-6.454-0.739l-0.04 2.569l5.447 0.088l-1.572 14.141l-3.875-0.082v4.287 c0 1.194-1.283 2.144-2.176 2.144l5.787 0.855c0.83 0.1 1.583-0.495 1.679-1.315l2.535-20.288C45.092 18.6 44.5 17.8 43.7 17.7 H43.666z"/></g></g><g id="audio"><g><path fill="#6E7171" d="M70.228 45.316h-85.462c-4.782 0-8.672-3.91-8.672-8.715v-46.646c0-4.808 3.89-8.715 8.672-8.715h85.462 c4.782 0 8.7 3.9 8.7 8.715v46.646c-0.047 4.835-3.894 8.699-8.748 8.715C70.198 45.3 70.2 45.3 70.2 45.316z M-14.629-12.554c-1.584 0-2.871 1.275-2.871 2.839v45.738c0 1.6 1.3 2.9 2.9 2.839h84.256 c1.584 0 2.871-1.272 2.871-2.839V-9.686c0-1.567-1.289-2.839-2.871-2.839c-0.006 0-84.258 0-84.258 0 S-14.629-12.554-14.629-12.554z"/><path fill="#6E7171" d="M31.967-51.757l-3.581-3.63L-9.631-17.954l3.736 3.63L31.967-51.757z"/><path fill="#6E7171" d="M37.193-57.051l-3.581-3.633l-3.939 3.993l3.581 3.63L37.193-57.051z"/><path fill="#6E7171" d="M-4.614 30.837c0 2.656-2.166 4.816-4.838 4.816l0 0c-2.673 0-4.838-2.155-4.838-4.816l0 0 c0-2.659 2.166-4.816 4.838-4.816l0 0C-6.78 26.021-4.614 28.179-4.614 30.837L-4.614 30.837z"/><path fill="#6E7171" d="M8.252 30.837c0 2.656-2.166 4.816-4.838 4.816l0 0c-2.673 0-4.841-2.155-4.841-4.816l0 0 c0-2.659 2.169-4.816 4.841-4.816l0 0c2.673-0.039 4.9 2.1 4.9 4.816C8.282 30.8 8.3 30.8 8.3 30.837z"/><path fill="#6E7171" d="M21.118 30.84c0 2.659-2.166 4.816-4.838 4.816l0 0c-2.673 0-4.838-2.155-4.838-4.816l0 0 c0-2.656 2.169-4.816 4.838-4.816l0 0c2.672-0.042 4.9 2.1 4.9 4.816C21.16 30.8 21.1 30.8 21.1 30.84z"/><path fill="#6E7171" d="M52.17 13.06c0 2.822-2.255 5.105-5.039 5.105l0 0c-2.782 0-5.039-2.283-5.039-5.105l0 0 c0-2.822 2.255-5.105 5.039-5.105l0 0c2.782-0.003 5 2.3 5 5.105H52.17z"/><path fill="#6E7171" d="M46.773 35.656c-12.414 0-22.512-10.087-22.512-22.486S34.363-9.316 46.773-9.316 c12.416 0 22.5 10.1 22.5 22.486c0.027 12.416-10.06 22.521-22.443 22.486H46.773z M46.77-2.846 c-8.841 0-16.035 7.199-16.035 16.049c0 8.8 7.2 16 16 16.049s16.035-7.199 16.035-16.049S55.611-2.846 46.818-2.856 L46.77-2.846z"/><path fill="#6E7171" d="M48.312 11.19L36.715 3.292l8.543 11.5L48.312 11.19z"/><path fill="#6E7171" d="M45.997 14.908l11.597 7.904l-8.543-11.5L45.997 14.908z"/><path fill="#6E7171" d="M-14.308-2.865h38.552v3.22h-38.552C-14.308 0.354-14.308-2.865-14.308-2.865z"/><path fill="#6E7171" d="M-14.311 6.789h35.366v3.22h-35.366C-14.311 10.009-14.311 6.789-14.311 6.789z"/><path fill="#6E7171" d="M-14.311 16.438l35.366-0.009v3.174l-35.366-0.006C-14.311 19.596-14.311 16.438-14.311 16.438z"/></g></g><g id="video" display="none"><path display="inline" fill="#65B3B9" d="M27.497 0c15.186 0 27.5 12.3 27.5 27.497S42.683 55 27.5 55C12.311 55 0 42.7 0 27.5 C0 12.3 12.3 0 27.5 0H27.497z"/><g display="inline"><path fill="#F9F9F3" d="M42.061 40.931H14.9c-1.608 0-2.916-1.245-2.916-2.775V22.697c0-1.53 1.308-2.776 2.916-2.776h27.162 c1.608 0 2.9 1.2 2.9 2.776v15.459C44.978 39.7 43.7 40.9 42.1 40.931H42.061z M14.963 21.9c-0.534 0-0.968 0.404-0.968 0.9 v15.19c0 0.5 0.4 0.9 1 0.901H42c0.534 0 0.968-0.404 0.968-0.901v-15.19c0-0.497-0.434-0.901-0.968-0.901 C42 21.9 15 21.9 15 21.9z"/><path fill="#F9F9F3" d="M38.079 20.676c-3.457 0-4.609 0-7.874 0c0-1.555 1.763-2.816 3.937-2.816 c2.174 0 4 1.2 4 2.816H38.079z"/><path fill="#F9F9F3" d="M35.783 18.693c-1.543 0-2.058 0-3.516 0c0-0.929 0.787-1.683 1.758-1.683s1.758 0.8 1.8 1.683H35.783z "/><path fill="#F9F9F3" d="M32.99 17.942l-3.516-4.896l1.134-0.849l3.516 4.895L32.99 17.942z"/><path fill="#F9F9F3" d="M38.966 30.942c0 0.553-0.446 1-0.996 1c-0.55 0-0.996-0.448-0.996-1c0-0.553 0.446-1.001 0.996-1.001 C38.52 29.9 39 30.4 39 30.942H38.966z"/><path fill="#F9F9F3" d="M41.962 30.942c0 0.553-0.442 1-0.988 1c-0.546 0-0.988-0.448-0.988-1c0-0.553 0.443-1.001 0.988-1.001 C41.52 29.9 42 30.4 42 30.942H41.962z"/><path fill="#F9F9F3" d="M41.965 26.434c0 1.378-1.119 2.494-2.498 2.494c-1.38 0-2.498-1.116-2.498-2.494s1.119-2.494 2.498-2.494 C40.846 23.9 42 25.1 42 26.434H41.965z"/><path fill="#F9F9F3" d="M16.942 41.078l-0.648 7.35c-0.09 0.5 1.2 0.8 1.4 0.086l2.957-7.838L16.942 41.078z"/><path fill="#F9F9F3" d="M40.068 41.078l0.648 7.35c0.09 0.517-1.169 0.775-1.35 0.086l-2.957-7.838L40.068 41.078z"/><path fill="#F9F9F3" d="M25.809 37.923h-0.656c-3.666 0-6.134-0.16-7.546-0.487c-1.093-0.253-1.641-0.522-1.998-1.451 c-0.163-0.424-0.639-1.66-0.639-5.399v-0.33c0-3.738 0.475-4.975 0.632-5.381c0.364-0.946 0.911-1.216 2.005-1.469 c1.412-0.327 3.88-0.486 7.546-0.486h0.656c3.667 0 6.1 0.2 7.5 0.486c1.093 0.3 1.6 0.5 2 1.5c0.163 0.4 0.6 1.7 0.6 5.399v0.33 c0 3.739-0.476 4.975-0.632 5.381c-0.363 0.947-0.911 1.216-2.005 1.5C31.944 37.8 29.5 37.9 25.8 37.923H25.809z M25.161 24.3 c-3.451 0-5.84 0.146-7.1 0.435c-0.829 0.189-0.878 0.261-1.031 0.7c-0.144 0.369-0.56 1.439-0.56 4.891v0.322 c0 3.5 0.4 4.5 0.6 4.873c0.16 0.4 0.2 0.5 1 0.7c1.261 0.3 3.6 0.4 7.1 0.435h0.647c3.451 0 5.84-0.146 7.1-0.435 c0.829-0.19 0.878-0.26 1.031-0.653c0.144-0.37 0.56-1.438 0.56-4.891v-0.322c0-3.452-0.416-4.522-0.553-4.873 c-0.16-0.411-0.209-0.483-1.038-0.672c-1.26-0.289-3.648-0.435-7.1-0.435h-0.656V24.276z"/><path fill="#F9F9F3" d="M36.965 34.937h5.027v1.004h-5.027V34.937z"/><path fill="#F9F9F3" d="M36.965 32.922h5.027v1.003h-5.027V32.922z"/><path fill="#F9F9F3" d="M31.181 12.208c0 0.78-0.661 1.413-1.476 1.413s-1.476-0.633-1.476-1.413c0-0.781 0.661-1.413 1.476-1.413 s1.476 0.6 1.5 1.413H31.181z"/><path fill="#F9F9F3" d="M34.052 17.566l5.763-8.131l1.222 0.729l-5.763 8.131L34.052 17.566z"/><path fill="#F9F9F3" d="M41.05 10.714c-0.766 0.267-1.614-0.11-1.893-0.844c-0.279-0.733 0.115-1.544 0.882-1.812 c0.766-0.267 1.6 0.1 1.9 0.844C42.211 9.6 41.8 10.4 41 10.714H41.05z"/></g></g><g id="quote" display="none"><path display="inline" fill="#786D5D" d="M27.497 0c15.186 0 27.5 12.3 27.5 27.497S42.683 55 27.5 55C12.311 55 0 42.7 0 27.5 C0 12.3 12.3 0 27.5 0H27.497z"/><g display="inline"><path fill="#F9F9F3" d="M44.975 34.128l-1.371-13.229c-0.099-0.954-0.979-1.652-1.962-1.556l-29.058 3.1 c-0.983 0.096-1.702 0.95-1.603 1.903l1.371 13.23c0.099 1 1 1.7 2 1.556l29.057-3.083C44.354 35.9 45.1 35.1 45 34.128H44.975z M19.043 30.566c-0.358 0.416-0.816 0.646-1.374 0.7c-0.651 0.053-1.236-0.16-1.754-0.641s-0.815-1.157-0.891-2.029 c-0.088-1.016 0.154-1.952 0.728-2.81s1.533-1.587 2.879-2.189l0.048 0.553c-0.782 0.352-1.374 0.852-1.779 1.5 c-0.404 0.651-0.577 1.307-0.52 2c0.012 0.1 0 0.2 0.1 0.311c0.035 0 0.1 0.1 0.1 0.059c0.039-0.003 0.095-0.034 0.168-0.093 c0.233-0.193 0.539-0.305 0.92-0.336c0.442-0.036 0.8 0.1 1.2 0.429c0.371 0.3 0.6 0.7 0.6 1.2C19.558 29.7 19.4 30.2 19 30.6 H19.043z M25.068 30.109c-0.358 0.416-0.816 0.647-1.375 0.7c-0.651 0.053-1.236-0.16-1.753-0.64 c-0.518-0.481-0.815-1.157-0.891-2.03c-0.088-1.016 0.155-1.952 0.728-2.809c0.574-0.858 1.533-1.587 2.878-2.19l0.048 0.6 c-0.782 0.352-1.374 0.853-1.778 1.503c-0.404 0.651-0.577 1.307-0.52 2c0.012 0.1 0 0.2 0.1 0.31c0.035 0 0.1 0.1 0.1 0.1 c0.039-0.003 0.095-0.034 0.168-0.093c0.233-0.193 0.539-0.306 0.919-0.336c0.442-0.036 0.8 0.1 1.2 0.4 c0.372 0.3 0.6 0.7 0.6 1.2C25.583 29.2 25.4 29.7 25.1 30.109H25.068z"/><path fill="#F9F9F3" d="M26.107 18.963l-11.076-2.001c-0.972-0.174-1.907 0.451-2.087 1.394l-0.362 1.905L26.107 18.963z"/><path fill="#F9F9F3" d="M35.435 38.686l5.129 1.204c0.971 0.2 1.907-0.451 2.087-1.394l0.126-0.662L35.435 38.686z"/></g></g><g id="link" display="none"><path display="inline" fill="#87B44E" d="M27.497 0c15.186 0 27.5 12.3 27.5 27.497S42.683 55 27.5 55C12.311 55 0 42.7 0 27.5 C0 12.3 12.3 0 27.5 0H27.497z"/><g display="inline"><path fill="#F9F9F3" d="M19.075 21.938c0 1.634-1.354 2.96-3.024 2.96s-3.024-1.325-3.024-2.96s1.354-2.96 3.024-2.96 s3.024 1.3 3 2.96H19.075z"/><path fill="#F9F9F3" d="M17.487 24.227l5.677 6.484h-2.506l-3.071-3.184v2.282l4.732 8.17h-3.166l-2.992-5.843l-3.105 5.843H9.891 l4.676-8.233v-2.282l-3.082 3.247H8.98l6.043-6.484c0-0.027 2.477-0.027 2.5 0C17.5 24.2 17.5 24.2 17.5 24.227z"/><path fill="#F9F9F3" d="M30.985 21.938c0 1.634-1.354 2.96-3.024 2.96s-3.024-1.325-3.024-2.96s1.354-2.96 3.024-2.96 S30.985 20.3 31 21.938H30.985z"/><path fill="#F9F9F3" d="M29.396 24.227l5.677 6.484h-2.505l-3.071-3.184v2.282l4.732 8.17h-3.166l-2.992-5.843l-3.105 5.843H21.8 l4.676-8.233v-2.282l-3.082 3.247H20.89l6.043-6.484c0-0.027 2.467-0.027 2.5 0C29.4 24.2 29.4 24.2 29.4 24.227z"/><path fill="#F9F9F3" d="M42.894 21.938c0 1.634-1.354 2.96-3.024 2.96s-3.024-1.325-3.024-2.96s1.354-2.96 3.024-2.96 s3.024 1.3 3 2.96H42.894z"/><path fill="#F9F9F3" d="M41.305 24.227l5.677 6.484h-2.505l-3.071-3.184v2.282l4.732 8.17h-3.166l-2.992-5.843l-3.105 5.843H33.71 l4.676-8.233v-2.282l-3.082 3.247h-2.505l6.043-6.484c0-0.027 2.458-0.027 2.5 0C41.3 24.2 41.3 24.2 41.3 24.227z"/></g></g></svg>