<svg xmlns="http://www.w3.org/2000/svg" xmlns:xlink="http://www.w3.org/1999/xlink" version="1.1" id="Layer_1" x="0px" y="0px" width="10.991px" height="19.031px" viewBox="0 0 10.991 19.031" enable-background="new 0 0 10.991 19.031" xml:space="preserve"><path fill="#E6BC3C" d="M6.987 15.118c0 1.581-1.564 3.27-3.494 3.772C1.564 19.4 0 18.5 0 16.9 c0-1.581 1.564-3.27 3.494-3.772C5.423 12.7 7 13.5 7 15.118z"/><path fill="#E6BC3C" d="M4.992 4.029l1.99 1.339v9.9l-1.99 0.759V4.029z"/><path fill="#E6BC3C" d="M10.991 11.472c0-3.021-1.219-4.587-2.699-6.25c-1.138-1.28-2.341-2.705-3.066-5.099 C5.176-0.046 4.994-0.039 5 0.13v6.576h0.785c0.682 0.9 1.5 1.4 2.2 1.953c1.103 0.8 2 1.4 2.5 3 C10.593 12.2 11 12.1 11 11.472z"/></svg>