<svg xmlns="http://www.w3.org/2000/svg" xmlns:xlink="http://www.w3.org/1999/xlink" version="1.1" id="Layer_1" x="0px" y="0px" width="438px" height="438px" viewBox="0 0 438 438" enable-background="new 0 0 438 438" xml:space="preserve"><path fill="#1A1A1A" d="M438 218.999C438 339.9 339.9 438 219 438C98.05 438 0 339.9 0 218.999C0 98 98 0 219 0 C339.95 0 438 98 438 218.999z M217.586 134.697c-46.559 0-84.303 37.743-84.303 84.303c0 46.6 37.7 84.3 84.3 84.3 s84.303-37.744 84.303-84.303C301.888 172.4 264.1 134.7 217.6 134.697z"/><circle fill="none" stroke="#000000" stroke-width="0.75" stroke-miterlimit="10" cx="217.6" cy="219" r="199.7"/><circle fill="none" stroke="#000000" stroke-width="14.7631" stroke-miterlimit="10" cx="217.2" cy="219.1" r="128.6"/><circle fill="none" stroke="#000000" stroke-width="0.75" stroke-miterlimit="10" cx="217.6" cy="219" r="171.2"/><circle fill="none" stroke="#000000" stroke-miterlimit="10" cx="217.6" cy="219" r="131.2"/><circle fill="none" stroke="#000000" stroke-miterlimit="10" cx="217.6" cy="219" r="122.7"/><g><circle fill="none" stroke="#000000" stroke-width="0.3" stroke-miterlimit="10" cx="217.5" cy="218.8" r="141.7"/><circle fill="none" stroke="#000000" stroke-width="0.3" stroke-miterlimit="10" cx="217.5" cy="218.8" r="143.8"/><circle fill="none" stroke="#000000" stroke-width="0.3" stroke-miterlimit="10" cx="217.5" cy="218.8" r="145.8"/><circle fill="none" stroke="#000000" stroke-width="0.3" stroke-miterlimit="10" cx="217.5" cy="218.8" r="147.9"/><circle fill="none" stroke="#000000" stroke-width="0.3" stroke-miterlimit="10" cx="217.5" cy="218.8" r="150"/><circle fill="none" stroke="#000000" stroke-width="0.3" stroke-miterlimit="10" cx="217.5" cy="218.8" r="152"/><circle fill="none" stroke="#000000" stroke-width="0.3" stroke-miterlimit="10" cx="217.5" cy="218.8" r="154.1"/><circle fill="none" stroke="#000000" stroke-width="0.3" stroke-miterlimit="10" cx="217.5" cy="218.8" r="156.1"/><circle fill="none" stroke="#000000" stroke-width="0.3" stroke-miterlimit="10" cx="217.5" cy="218.8" r="158.2"/><circle fill="none" stroke="#000000" stroke-width="0.3" stroke-miterlimit="10" cx="217.5" cy="218.8" r="160.2"/><circle fill="none" stroke="#000000" stroke-width="0.3" stroke-miterlimit="10" cx="217.5" cy="218.8" r="162.3"/><circle fill="none" stroke="#000000" stroke-width="0.3" stroke-miterlimit="10" cx="217.5" cy="218.8" r="164.3"/><circle fill="none" stroke="#000000" stroke-width="0.3" stroke-miterlimit="10" cx="217.5" cy="218.8" r="166.4"/><circle fill="none" stroke="#000000" stroke-width="0.3" stroke-miterlimit="10" cx="217.5" cy="218.8" r="168.5"/><circle fill="none" stroke="#000000" stroke-width="0.3" stroke-miterlimit="10" cx="217.5" cy="218.8" r="170.5"/><circle fill="none" stroke="#000000" stroke-width="0.3" stroke-miterlimit="10" cx="217.5" cy="218.8" r="172.6"/><circle fill="none" stroke="#000000" stroke-width="0.3" stroke-miterlimit="10" cx="217.5" cy="218.8" r="174.6"/><circle fill="none" stroke="#000000" stroke-width="0.3" stroke-miterlimit="10" cx="217.5" cy="218.8" r="176.7"/><circle fill="none" stroke="#000000" stroke-width="0.3" stroke-miterlimit="10" cx="217.5" cy="218.8" r="178.7"/><circle fill="none" stroke="#000000" stroke-width="0.3" stroke-miterlimit="10" cx="217.5" cy="218.8" r="180.8"/><circle fill="none" stroke="#000000" stroke-width="0.3" stroke-miterlimit="10" cx="217.5" cy="218.8" r="182.8"/><circle fill="none" stroke="#000000" stroke-width="0.3" stroke-miterlimit="10" cx="217.5" cy="218.8" r="184.9"/><circle fill="none" stroke="#000000" stroke-width="0.3" stroke-miterlimit="10" cx="217.5" cy="218.8" r="187"/><circle fill="none" stroke="#000000" stroke-width="0.3" stroke-miterlimit="10" cx="217.5" cy="218.8" r="189"/><circle fill="none" stroke="#000000" stroke-width="0.3" stroke-miterlimit="10" cx="217.5" cy="218.8" r="191.1"/><circle fill="none" stroke="#000000" stroke-width="0.3" stroke-miterlimit="10" cx="217.5" cy="218.8" r="193.1"/><circle fill="none" stroke="#000000" stroke-width="0.3" stroke-miterlimit="10" cx="217.5" cy="218.8" r="195.2"/><circle fill="none" stroke="#000000" stroke-width="0.3" stroke-miterlimit="10" cx="217.5" cy="218.8" r="197.2"/><circle fill="none" stroke="#000000" stroke-width="0.3" stroke-miterlimit="10" cx="217.5" cy="218.8" r="199.3"/><circle fill="none" stroke="#000000" stroke-width="0.3" stroke-miterlimit="10" cx="217.5" cy="218.8" r="201.3"/><circle fill="none" stroke="#000000" stroke-width="0.3" stroke-miterlimit="10" cx="217.5" cy="218.8" r="203.4"/><circle fill="none" stroke="#000000" stroke-width="0.3" stroke-miterlimit="10" cx="217.5" cy="218.8" r="205.5"/><circle fill="none" stroke="#000000" stroke-width="0.3" stroke-miterlimit="10" cx="217.5" cy="218.8" r="207.5"/><circle fill="none" stroke="#000000" stroke-width="0.3" stroke-miterlimit="10" cx="217.5" cy="218.8" r="209.6"/><circle fill="none" stroke="#000000" stroke-width="0.3" stroke-miterlimit="10" cx="217.5" cy="218.8" r="211.6"/><circle fill="none" stroke="#000000" stroke-width="0.3" stroke-miterlimit="10" cx="217.5" cy="218.8" r="213.7"/><circle fill="none" stroke="#000000" stroke-width="0.3" stroke-miterlimit="10" cx="217.5" cy="218.8" r="215.7"/></g><linearGradient id="SVGID_1_" gradientUnits="userSpaceOnUse" x1="267.3" y1="87.8" x2="330.9" y2="138"><stop offset="0" style="stop-color:#000000;stop-opacity:0"/><stop offset="0.0307" style="stop-color:#232323;stop-opacity:0.015"/><stop offset="0.0813" style="stop-color:#565656;stop-opacity:0.0396"/><stop offset="0.1343" style="stop-color:#838383;stop-opacity:0.0655"/><stop offset="0.1886" style="stop-color:#A9A9A9;stop-opacity:0.0919"/><stop offset="0.2446" style="stop-color:#C8C8C8;stop-opacity:0.1193"/><stop offset="0.3028" style="stop-color:#E1E1E1;stop-opacity:0.1476"/><stop offset="0.3642" style="stop-color:#F2F2F2;stop-opacity:0.1776"/><stop offset="0.4309" style="stop-color:#FCFCFC;stop-opacity:0.2101"/><stop offset="0.5127" style="stop-color:#FFFFFF;stop-opacity:0.25"/><stop offset="0.5667" style="stop-color:#FAFAFA;stop-opacity:0.2223"/><stop offset="0.6271" style="stop-color:#EDEDED;stop-opacity:0.1913"/><stop offset="0.6906" style="stop-color:#D7D7D7;stop-opacity:0.1587"/><stop offset="0.7563" style="stop-color:#B7B7B7;stop-opacity:0.125"/><stop offset="0.8236" style="stop-color:#8F8F8F;stop-opacity:0.0905"/><stop offset="0.8924" style="stop-color:#5D5D5D;stop-opacity:0.0552"/><stop offset="0.9609" style="stop-color:#242424;stop-opacity:0.0201"/><stop offset="1" style="stop-color:#000000;stop-opacity:0"/></linearGradient><path fill="url(#SVGID_1_)" d="M243.559 175.299c2.154 0.7 4 2.2 5.2 4.021l147.87-82.295 c-26.384-39.269-65.145-69.52-110.697-85.176L243.559 175.299z"/><linearGradient id="SVGID_2_" gradientUnits="userSpaceOnUse" x1="1662.6" y1="88.9" x2="1726.2" y2="139.1" gradientTransform="matrix(-1 0 0 -1 1824.999 438.999)"><stop offset="0" style="stop-color:#000000;stop-opacity:0"/><stop offset="0.0307" style="stop-color:#232323;stop-opacity:0.015"/><stop offset="0.0813" style="stop-color:#565656;stop-opacity:0.0396"/><stop offset="0.1343" style="stop-color:#838383;stop-opacity:0.0655"/><stop offset="0.1886" style="stop-color:#A9A9A9;stop-opacity:0.0919"/><stop offset="0.2446" style="stop-color:#C8C8C8;stop-opacity:0.1193"/><stop offset="0.3028" style="stop-color:#E1E1E1;stop-opacity:0.1476"/><stop offset="0.3642" style="stop-color:#F2F2F2;stop-opacity:0.1776"/><stop offset="0.4309" style="stop-color:#FCFCFC;stop-opacity:0.2101"/><stop offset="0.5127" style="stop-color:#FFFFFF;stop-opacity:0.25"/><stop offset="0.5667" style="stop-color:#FAFAFA;stop-opacity:0.2223"/><stop offset="0.6271" style="stop-color:#EDEDED;stop-opacity:0.1913"/><stop offset="0.6906" style="stop-color:#D7D7D7;stop-opacity:0.1587"/><stop offset="0.7563" style="stop-color:#B7B7B7;stop-opacity:0.125"/><stop offset="0.8236" style="stop-color:#8F8F8F;stop-opacity:0.0905"/><stop offset="0.8924" style="stop-color:#5D5D5D;stop-opacity:0.0552"/><stop offset="0.9609" style="stop-color:#242424;stop-opacity:0.0201"/><stop offset="1" style="stop-color:#000000;stop-opacity:0"/></linearGradient><path fill="url(#SVGID_2_)" d="M185.018 262.231c-2.154-0.741-3.992-2.164-5.239-4.021L33.322 340.5 c26.384 39.3 65.1 69.5 110.7 85.175L185.018 262.231z"/><linearGradient id="SVGID_3_" gradientUnits="userSpaceOnUse" x1="183.9" y1="184.4" x2="251.7" y2="252.3"><stop offset="0" style="stop-color:#E6BC3C"/><stop offset="0.5" style="stop-color:#FFD47C"/><stop offset="1" style="stop-color:#E6BC3C"/></linearGradient><path fill="url(#SVGID_3_)" d="M335.325 219.101c0 64.497-52.283 116.779-116.778 116.779c-64.495 0-116.778-52.283-116.778-116.779 c0-64.495 52.283-116.779 116.778-116.779C283.042 102.3 335.3 154.6 335.3 219.101z M217.615 169.1 c-27.735 0-50.224 22.483-50.224 50.225c0 27.7 22.5 50.2 50.2 50.224s50.219-22.484 50.219-50.224 C267.834 191.6 245.3 169.1 217.6 169.104z"/></svg>